<svg width="1208" height="130" viewBox="0 0 1208 130" fill="none" xmlns="http://www.w3.org/2000/svg">
<g clip-path="url(#clip0_1512_11149)">
<path d="M977 33.3096C974.495 106.085 887 166 869.285 104.091C851.571 42.1828 727 161.768 727 112.416C727 63.0638 769.283 -0.76676 822.677 -0.76676C876.071 -0.76676 977 -16.0425 977 33.3096Z" fill="#780909"/>
<path d="M309 9.32899C309 58.833 265.802 98.964 212.514 98.964C159.225 98.964 120 160.175 120 110.671C120 61.167 163.198 21.036 216.486 21.036C269.775 21.036 309 -40.1751 309 9.32899Z" fill="#FFBEBE"/>
<path d="M577.747 93.5876C543.802 133.508 476.513 132.052 427.454 90.3365C378.395 48.6208 300.309 67.2744 334.254 27.3541C368.199 -12.5663 435.487 -11.1107 484.547 30.6051C533.606 72.3209 611.691 53.6672 577.747 93.5876Z" fill="#FF9898"/>
<path d="M301.625 129.998C328.27 130.126 353.766 127.083 378.414 120.607C403.063 114.131 322.226 35.0927 341.125 22.998C360.025 10.9034 478.29 65.9893 488.563 50.1175C498.836 34.2457 504.166 17.2072 504.249 -0.0253906L301.625 -0.0253906L301.625 129.998Z" fill="#E43535"/>
<path d="M176.772 72.7471C66.1327 29.7838 107.5 63.4843 97.8698 130C15.099 130 -52 93.5112 -52 48.5C-52 3.4888 15.099 -33 97.8698 -33C180.641 -33 341.188 155.809 176.772 72.7471Z" fill="#780909"/>
<path d="M302 130C274.816 130 247.899 126.637 222.785 120.104C197.67 113.571 297.889 32.8224 278.668 20.7508C259.446 8.67916 121.16 65.5212 110.757 49.7489C100.354 33.9765 95 17.0718 95 0L302 1.2675e-05V130Z" fill="#ACCA62"/>
<path d="M474.5 91.5C581 51.5 585.967 46.466 562.599 124.932C632.978 147.451 724 90.1535 724 46.8179C724 3.48231 650.634 -32 562.599 -32C474.565 -32 369.314 131.007 474.5 91.5Z" fill="#336F36"/>
<path d="M655.982 96.3759C698.724 121.54 727.042 62.4332 786.451 105.857C825.29 134.247 872.098 144.719 855.023 96.3102C838.283 48.8513 823.596 35.9724 768.982 10.7793C692.166 -22.7376 544.753 30.8915 655.982 96.3759Z" fill="#FFBEBE"/>
<path d="M603.631 130C633.023 132.507 660 130.5 685.967 120.634C707.5 108.5 626.254 35.1028 646.327 23.0138C666.4 10.9248 815 55.5005 836.563 45.3396C854 32.0005 861.87 17.0441 861.953 -0.188477L603.631 -0.00995974L603.631 130Z" fill="#ACCA62"/>
<path d="M1152.7 96.6241C1119.95 135.145 1054.8 133.555 1007.19 93.0727C959.581 52.59 884.035 70.4216 916.79 31.9002C949.545 -6.6212 1014.69 -5.03111 1062.3 35.4516C1109.91 75.9342 1196 31.9 1152.7 96.6241Z" fill="#FFBEBE"/>
<path d="M1062 90.5C1168.5 50.5 1173.46 45.466 1150.1 123.932C1220.48 146.451 1311.5 89.1535 1311.5 45.8179C1311.5 2.48231 1238.13 -33 1150.1 -33C1062.06 -33 956.812 130.007 1062 90.5Z" fill="#336F36"/>
<path d="M905.495 129.362C905.5 129 963.587 124.625 988.099 117.062C1012.61 109.499 927.774 34.2296 946.253 21.3163C964.732 8.40297 1086.17 58.0983 1095.8 41.8005C1105.43 25.5028 1112.19 17.2375 1111.51 0.0364753L905.489 0.102722C905.489 0.102722 905.489 129.725 905.495 129.362Z" fill="#E43535"/>
</g>
<defs>
<clipPath id="clip0_1512_11149">
<rect width="1208" height="130" fill="white"/>
</clipPath>
</defs>
</svg>
