<svg width="320" height="152" viewBox="0 0 320 152" fill="none" xmlns="http://www.w3.org/2000/svg">
<g clip-path="url(#clip0_1525_10516)">
<path d="M370 1.19479C370 60.5996 313.088 108.757 242.883 108.757C172.678 108.757 121 182.21 121 122.805C121 63.4004 177.912 15.2432 248.117 15.2432C318.322 15.2432 370 -58.2101 370 1.19479Z" fill="#F66767"/>
<path d="M143.772 69.6723C33.1327 10.8944 147.641 148 64.8698 148C-17.901 148 -85 98.0797 -85 36.5C-85 -25.0798 -17.901 -75 64.8698 -75C147.641 -75 308.188 183.31 143.772 69.6723Z" fill="#FFBEBE"/>
<path d="M320 152C292.291 152 264.853 148.068 239.254 140.43C213.654 132.791 315.81 38.3769 296.217 24.2624C276.624 10.1479 135.665 76.6094 125.061 58.1679C114.458 39.7264 109 19.9609 109 0L320 1.482e-05V152Z" fill="#ACCA62"/>
</g>
<defs>
<clipPath id="clip0_1525_10516">
<rect width="320" height="152" fill="white"/>
</clipPath>
</defs>
</svg>
