<svg width="510" height="624" viewBox="0 0 510 624" fill="none" xmlns="http://www.w3.org/2000/svg">
<g clip-path="url(#clip0_1140_4184)">
<rect y="-2" width="170" height="312" fill="#FFD1D1"/>
<rect x="340" y="-2" width="170" height="313" fill="#FCE0DC"/>
<rect y="310.06" width="170" height="314" fill="#FCE0DC"/>
<rect x="170" y="310" width="170" height="314" fill="#FCE0DC"/>
<path d="M503 290.56C503 376.993 426.888 447.06 333 447.06C239.112 447.06 170 553.933 170 467.5C170 381.068 246.112 311 340 311C433.888 311 503 204.128 503 290.56Z" fill="#FCE0DC"/>
<path d="M343 624C320.281 624 297.785 619.939 276.796 612.049C255.806 604.159 339.565 506.639 323.5 492.06C307.435 477.482 191.863 546.129 183.169 527.081C174.475 508.033 170 487.617 170 467L343 467V624Z" fill="#F66767"/>
<path d="M344 310.99C366.823 311.322 389.365 315.674 410.337 323.796C431.309 331.919 367.911 414.011 383.84 428.688C399.768 443.366 501.54 337.063 510 356.06C510 375.56 510.297 448.629 510 469.054L344 469.054L344 310.99Z" fill="#F66767"/>
<path d="M345.016 311C322.21 310.804 299.593 314.693 278.455 322.446C257.317 330.199 238.073 341.663 221.82 356.184C205.568 370.705 192.627 387.999 183.735 407.078C174.843 426.157 170.174 446.647 169.996 467.379L343.659 468.872L345.016 311Z" fill="#780909"/>
<path d="M343 314.06C343 357.414 302.168 467 255.5 467C151 483.06 170.5 357.414 170.5 314.06C170.5 270.705 212 412.493 262.5 405.56C309.168 405.56 343 270.706 343 314.06Z" fill="#780909"/>
<path d="M422.5 202.06C297 119.56 426.888 312 333 312C239.112 312 163 241.933 163 155.5C163 69.0674 239.112 -1 333 -1C426.888 -1 609 361.56 422.5 202.06Z" fill="#FCE0DC"/>
<rect x="170" y="-2" width="170" height="313" fill="#8EA94B"/>
<path d="M340 -1.93969C362.315 -1.61531 386.687 3.65557 407.19 11.7751C427.693 19.8947 347.429 119.77 362.998 134.448C378.568 149.127 489.665 78.3218 497.931 97.3248C506.196 116.328 510.297 136.626 510 157.06L340.072 154.59L340 -1.93969Z" fill="#F66767"/>
<path d="M0 310H170V468.5H0V310Z" fill="#F66767"/>
<path d="M170.04 466.978C169.966 487.267 178.602 578.847 170.04 597.56C161.478 616.274 47.2469 480.771 31.4997 495.06C15.7525 509.35 84.7416 603.776 64.2066 611.466C43.6716 619.156 21.6779 623.072 -0.518555 622.992L0.0408816 468.496L170.04 466.978Z" fill="#780909"/>
<path d="M59 408.56C59 451.915 291 469 83.5 469C36.8319 469 0 433.915 0 390.56C0 347.206 36.8319 310.06 83.5 310.06C130.168 310.06 59 365.206 59 408.56Z" fill="#780909"/>
<path d="M343.499 469.561C365.177 469.876 390.3 469.76 410.214 477.913C430.127 486.066 368.088 577.068 383.205 591.818C398.323 606.567 490.301 544.777 498.321 563.877C506.34 582.978 510.314 603.383 510.016 623.928L342.999 623.927L343.499 469.561Z" fill="#FCE0DC"/>
<path d="M340 0H510V466L340 465.39V0Z" fill="#23552C"/>
<rect y="310.06" width="170" height="314" fill="#23552C"/>
<path d="M170 310H340V624H170V310Z" fill="#FCE0DC"/>
<path d="M510 289.731C510 375.992 432.288 445.92 336.426 445.92C240.564 445.92 170 552.58 170 466.319C170 380.058 244.138 309.882 340 309.882C435.862 309.882 510 203.47 510 289.731Z" fill="#FFBEBE"/>
<path d="M340 624C317.675 624 295.569 619.965 274.944 612.125C254.318 604.285 336.624 507.387 320.838 492.901C305.052 478.415 191.484 546.625 182.94 527.699C174.397 508.772 170 488.486 170 468L340 468V624Z" fill="#ACCA62"/>
<path d="M339.986 310C362.169 310.322 384.155 313.683 404.535 321.844C424.915 330.005 363.254 412.619 378.729 427.377C394.203 442.134 501.798 334.639 510.011 353.746C510.001 373.363 510.3 447.441 510.001 467.989L340 468L339.986 310Z" fill="#F66767"/>
<path d="M340 310C317.172 308.536 297 314.5 275.87 322.394C255.24 330.132 236.458 341.573 220.595 356.062C204.732 370.551 192.1 387.806 183.419 406.841C174.737 425.875 170.178 447.318 170 468L340 468L340 310Z" fill="#E43535"/>
<path d="M427.675 197.609C299.745 113.269 435.648 310 339.941 310C244.235 310 163 238.37 163 150.01C163 61.6504 240.585 12 336.292 12C431.998 12 617.787 360.665 427.675 197.609Z" fill="#FCE0DC"/>
<rect x="170" y="-2" width="170" height="312" fill="#5A944B"/>
<path d="M340 0.000235105C362.313 0.324589 386.683 3.65274 407.184 11.7642C427.686 19.8757 347.43 119.646 362.998 134.31C378.566 148.974 489.653 78.2432 497.918 97.2267C506.182 116.21 510.296 134.587 510 155L340 155L340 0.000235105Z" fill="#F66767"/>
<path d="M-0.000489171 156C0.0248956 135.845 5.38652 114.277 13.8956 95.6676C22.4047 77.0579 34.8636 60.1547 50.561 45.923C66.2583 31.6913 12.9649 140.646 33.4607 132.959C53.9566 125.272 104.5 5.51766 170 -2.08143e-05L170.014 155.497L-0.000489171 156Z" fill="#23552C"/>
<path d="M170 310C147.675 310 125.569 306.005 104.944 298.242C84.3185 290.479 162.286 194.904 146.5 180.56C130.714 166.216 21.4838 233.384 12.9405 214.643C4.39718 195.901 -1.95169e-06 175.814 0 155.529L170 155V310Z" fill="#F66767"/>
<path d="M0 310H170V468H0V310Z" fill="#5A944B"/>
<path d="M170 468C170 487.504 170.5 578 165.815 597.545C157.464 616.26 46.076 480.767 30.7177 495.058C15.3594 509.349 82.6304 603.769 62.6036 611.46C42.5768 619.152 21.1279 623.071 -0.518555 622.992L0.0408812 468.496L170 468Z" fill="#780909"/>
<path d="M340 468H510V624H340V468Z" fill="#E43535"/>
<path d="M58.9449 408.5C58.9449 451.854 291.228 468 83.9216 468C37.2971 468 0 433.854 0 390.5C0 347.146 36.7975 310 83.422 310C130.046 310 58.9449 365.146 58.9449 408.5Z" fill="#ACCA62"/>
<path d="M340 468C361.677 468.315 390.301 469.761 410.214 477.914C430.128 486.067 368.089 577.068 383.206 591.818C398.323 606.568 490.301 544.777 498.321 563.878C506.341 582.979 510.298 603.456 510 624L340 624L340 468Z" fill="#23552C"/>
<path d="M340 155C317.675 155 295.569 150.979 274.944 143.166C254.318 135.353 332.286 39.1617 316.5 24.7252C300.714 10.2887 191.484 77.8895 182.94 59.0273C174.397 40.1651 170 20.4163 170 -8.18074e-06L340 -0.00012207V155Z" fill="#BAD96E"/>
<path d="M170 310C192.325 310 214.431 306.005 235.056 298.242C255.681 290.479 177.714 194.904 193.5 180.56C209.286 166.216 318.516 233.384 327.059 214.643C335.603 195.901 340 175.285 340 155H170V310Z" fill="#E43535"/>
<path d="M340 318.35C340 360.446 306.167 458.787 254.934 466.586C152.482 482.18 171.371 364.59 171.371 322.493C171.371 280.397 211.567 413.759 261.077 407.027C306.831 407.027 340 276.253 340 318.35Z" fill="#780909"/>
</g>
<defs>
<clipPath id="clip0_1140_4184">
<path d="M0 0H500C505.523 0 510 4.47715 510 10V614C510 619.523 505.523 624 500 624H0V0Z" fill="white"/>
</clipPath>
</defs>
</svg>
