<svg width="9" height="14" viewBox="0 0 9 14" fill="none" xmlns="http://www.w3.org/2000/svg">
<path d="M0.339702 0.637147C0.132196 0.815213 0.015625 1.05669 0.015625 1.30848C0.015625 1.56026 0.132196 1.80174 0.339702 1.9798L6.19837 7.00573L0.339702 12.0317C0.138076 12.2108 0.0265102 12.4506 0.0290321 12.6996C0.031554 12.9485 0.147962 13.1867 0.353185 13.3628C0.558408 13.5388 0.836025 13.6387 1.12624 13.6408C1.41646 13.643 1.69606 13.5473 1.90482 13.3743L8.54604 7.67706C8.75354 7.499 8.87011 7.25752 8.87011 7.00573C8.87011 6.75395 8.75354 6.51247 8.54604 6.33441L1.90482 0.637147C1.69725 0.459135 1.41576 0.359135 1.12226 0.359135C0.828757 0.359135 0.547271 0.459135 0.339702 0.637147Z" fill="white"/>
</svg>
