<svg width="10" height="15" viewBox="0 0 10 15" fill="none" xmlns="http://www.w3.org/2000/svg">
<path d="M9.634 14.686C9.86835 14.4849 10 14.2122 10 13.9278C10 13.6435 9.86835 13.3708 9.634 13.1697L3.01739 7.49353L9.634 1.81739C9.86171 1.61513 9.98771 1.34424 9.98486 1.06307C9.98201 0.781892 9.85054 0.512924 9.61877 0.314095C9.387 0.115266 9.07346 0.00248388 8.7457 4.05388e-05C8.41794 -0.00240281 8.10217 0.105688 7.8664 0.301032L0.366002 6.73535C0.13165 6.93645 0 7.20917 0 7.49353C0 7.77788 0.13165 8.0506 0.366002 8.2517L7.8664 14.686C8.10083 14.8871 8.41873 15 8.7502 15C9.08167 15 9.39958 14.8871 9.634 14.686Z" fill="white"/>
</svg>
