<svg width="13" height="18" viewBox="0 0 13 18" fill="none" xmlns="http://www.w3.org/2000/svg">
<path d="M11.7867 17.3205C12.058 17.0877 12.2104 16.7719 12.2104 16.4426C12.2104 16.1134 12.058 15.7976 11.7867 15.5648L4.12533 8.99239L11.7867 2.42001C12.0503 2.18583 12.1962 1.87217 12.1929 1.54659C12.1896 1.22102 12.0374 0.909586 11.769 0.679363C11.5007 0.44914 11.1376 0.31855 10.7581 0.315721C10.3786 0.312892 10.013 0.43805 9.73997 0.664237L1.05529 8.1145C0.78394 8.34735 0.631503 8.66313 0.631503 8.99239C0.631503 9.32164 0.78394 9.63742 1.05529 9.87028L9.73997 17.3205C10.0114 17.5533 10.3795 17.6841 10.7633 17.6841C11.1471 17.6841 11.5152 17.5533 11.7867 17.3205Z" fill="#6F9944"/>
</svg>
