<svg width="9" height="12" viewBox="0 0 9 12" fill="none" xmlns="http://www.w3.org/2000/svg">
<path d="M8.04599 11.2949C8.21867 11.1467 8.31567 10.9458 8.31567 10.7363C8.31567 10.5267 8.21867 10.3258 8.04599 10.1776L3.1706 5.99518L8.04599 1.81276C8.21377 1.66373 8.30662 1.46413 8.30452 1.25695C8.30242 1.04976 8.20555 0.851577 8.03477 0.705071C7.86399 0.558566 7.63296 0.475463 7.39145 0.473663C7.14994 0.471862 6.91727 0.551508 6.74355 0.695446L1.21694 5.43652C1.04426 5.5847 0.947253 5.78565 0.947253 5.99518C0.947253 6.20471 1.04426 6.40565 1.21694 6.55383L6.74355 11.2949C6.91628 11.443 7.15053 11.5263 7.39477 11.5263C7.63901 11.5263 7.87326 11.443 8.04599 11.2949Z" fill="#BC4749"/>
</svg>
