<svg width="18" height="18" viewBox="0 0 18 18" fill="none" xmlns="http://www.w3.org/2000/svg">
<path d="M17.3077 17.9999H0.692308C0.313846 17.9999 0 17.6938 0 17.3247C0 16.9555 0.313846 16.6494 0.692308 16.6494H17.3077C17.6862 16.6494 18 16.9555 18 17.3247C18 17.6938 17.6862 17.9999 17.3077 17.9999Z" fill="white"/>
<path d="M15.4804 1.32695C13.6896 -0.419737 11.9358 -0.464755 10.0989 1.32695L8.98195 2.41638C8.88964 2.50642 8.85271 2.65048 8.88964 2.77653C9.59118 5.16247 11.5481 7.07123 13.9943 7.75548C14.0312 7.76448 14.0681 7.77348 14.105 7.77348C14.2066 7.77348 14.2989 7.73747 14.3727 7.66544L15.4804 6.57603C16.3943 5.69368 16.8373 4.83834 16.8373 3.974C16.8466 3.08265 16.4035 2.21831 15.4804 1.32695Z" fill="white"/>
<path d="M12.3338 8.57376C12.0661 8.44771 11.8076 8.32167 11.5584 8.17761C11.3553 8.06056 11.1615 7.93451 10.9676 7.79946C10.8107 7.70042 10.6261 7.55636 10.4507 7.4123C10.4323 7.4033 10.3676 7.34928 10.2938 7.27725C9.98919 7.02513 9.64765 6.70101 9.34303 6.34086C9.31534 6.32286 9.26919 6.25983 9.20457 6.1788C9.11226 6.07076 8.95534 5.89068 8.81688 5.6836C8.70611 5.54855 8.57688 5.35047 8.45688 5.15239C8.30919 4.9093 8.17996 4.6662 8.05073 4.4141C8.03116 4.37323 8.01223 4.33256 7.99396 4.29214C7.85771 3.99203 7.45645 3.90429 7.21857 4.13637L1.93075 9.29405C1.81075 9.4111 1.69998 9.63619 1.67228 9.78925L1.17382 13.2376C1.08151 13.8499 1.2569 14.4261 1.64459 14.8132C1.9769 15.1284 2.43844 15.2994 2.9369 15.2994C3.04767 15.2994 3.15844 15.2904 3.26921 15.2724L6.81382 14.7862C6.97998 14.7592 7.21073 14.6512 7.3215 14.5341L12.6027 9.38291C12.8423 9.14918 12.752 8.74816 12.4403 8.61842C12.4052 8.60384 12.3697 8.58889 12.3338 8.57376Z" fill="white"/>
</svg>
