<svg width="18" height="18" viewBox="0 0 18 18" fill="none" xmlns="http://www.w3.org/2000/svg">
<path d="M7.25 8.11111V13.4444M10.75 8.11111V13.4444M2 4.55556H16M15.125 4.55556L14.3664 15.3484C14.3349 15.797 14.1374 16.2167 13.8135 16.5232C13.4896 16.8296 13.0634 17 12.6208 17H5.37925C4.93662 17 4.51043 16.8296 4.18652 16.5232C3.86262 16.2167 3.66505 15.797 3.63363 15.3484L2.875 4.55556H15.125ZM11.625 4.55556V1.88889C11.625 1.65314 11.5328 1.42705 11.3687 1.26035C11.2046 1.09365 10.9821 1 10.75 1H7.25C7.01794 1 6.79538 1.09365 6.63128 1.26035C6.46719 1.42705 6.375 1.65314 6.375 1.88889V4.55556H11.625Z" stroke="white" stroke-width="1.99999" stroke-linecap="round" stroke-linejoin="round"/>
</svg>
