<svg width="18" height="19" viewBox="0 0 18 19" fill="none" xmlns="http://www.w3.org/2000/svg">
<path d="M10.8974 7.68683L7.10238 11.3132C6.59913 10.8323 6.31641 10.1801 6.31641 9.5C6.31641 9.16326 6.38582 8.82982 6.52067 8.51872C6.65553 8.20761 6.85319 7.92494 7.10238 7.68683C7.35156 7.44872 7.64738 7.25984 7.97296 7.13098C8.29853 7.00212 8.64748 6.93579 8.99988 6.93579C9.71158 6.93579 10.3941 7.20595 10.8974 7.68683Z" stroke="#A2A2A2" stroke-linecap="round" stroke-linejoin="round"/>
<path d="M13.3649 5.035C12.0524 4.089 10.5524 3.573 8.99988 3.573C6.35238 3.573 3.88488 5.06366 2.16738 7.64366C1.49238 8.65416 1.49238 10.3527 2.16738 11.3632C2.75988 12.2518 3.44988 13.0187 4.19988 13.635M6.31488 14.8963C7.16988 15.2403 8.07738 15.4267 8.99988 15.4267C11.6474 15.4267 14.1149 13.936 15.8324 11.356C16.5074 10.3455 16.5074 8.647 15.8324 7.6365C15.5849 7.26383 15.3149 6.91266 15.0374 6.583" stroke="#A2A2A2" stroke-linecap="round" stroke-linejoin="round"/>
<path d="M11.6325 10.0016C11.5309 10.5015 11.2753 10.961 10.8984 11.3211C10.5216 11.6812 10.0407 11.9255 9.5175 12.0226M7.1025 11.3131L1.5 16.6666M16.5 2.33325L10.8975 7.68675" stroke="#A2A2A2" stroke-linecap="round" stroke-linejoin="round"/>
</svg>
