<svg width="18" height="19" viewBox="0 0 18 19" fill="none" xmlns="http://www.w3.org/2000/svg">
<path d="M11.6854 9.49999C11.6854 10.919 10.4854 12.0657 9.00043 12.0657C7.51543 12.0657 6.31543 10.919 6.31543 9.49999C6.31543 8.08099 7.51543 6.93433 9.00043 6.93433C10.4854 6.93433 11.6854 8.08099 11.6854 9.49999Z" stroke="#A2A2A2" stroke-linecap="round" stroke-linejoin="round"/>
<path d="M8.99988 15.4269C11.6474 15.4269 14.1149 13.9362 15.8324 11.3562C16.5074 10.3457 16.5074 8.64721 15.8324 7.63671C14.1149 5.05671 11.6474 3.56604 8.99988 3.56604C6.35238 3.56604 3.88488 5.05671 2.16738 7.63671C1.49238 8.64721 1.49238 10.3457 2.16738 11.3562C3.88488 13.9362 6.35238 15.4269 8.99988 15.4269Z" stroke="#A2A2A2" stroke-linecap="round" stroke-linejoin="round"/>
</svg>
