<svg width="25" height="24" viewBox="0 0 25 24" fill="none" xmlns="http://www.w3.org/2000/svg">
<g clip-path="url(#clip0_1512_11190)">
<path fill-rule="evenodd" clip-rule="evenodd" d="M11.5126 5.6479C11.9643 6.31301 12.1916 7.10516 12.1916 8.03033C12.1916 8.98241 11.9643 9.74916 11.5069 10.3276C11.2484 10.6519 10.872 10.9493 10.3734 11.2169C11.1305 11.5083 11.7001 11.9672 12.0879 12.5949C12.4728 13.2212 12.6646 13.9849 12.6646 14.8817C12.6646 15.8054 12.4458 16.6364 12.0041 17.3688C11.7242 17.8545 11.3734 18.2656 10.9544 18.5974C10.4814 18.9785 9.92456 19.2386 9.27968 19.3805C8.63481 19.5225 7.93738 19.5913 7.18313 19.5913H0.5V3.98438H7.66749C9.47712 4.01427 10.7569 4.56728 11.5126 5.6479ZM3.45734 6.69563V10.1393H7.06381C7.70585 10.1393 8.22999 10.0092 8.63339 9.75065C9.03253 9.49358 9.23565 9.03622 9.23565 8.38157C9.23565 7.65369 8.97003 7.17391 8.43879 6.93926C7.97999 6.77784 7.39619 6.69563 6.68598 6.69563H3.45734ZM3.45734 12.7205V16.8815H7.05813C7.70158 16.8815 8.203 16.7904 8.56095 16.608C9.2115 16.2672 9.53536 15.6186 9.53536 14.6605C9.53536 13.8459 9.22287 13.2899 8.5922 12.985C8.23851 12.8161 7.7442 12.7265 7.10927 12.7205H3.45734ZM21.6318 8.28592C22.3988 8.64612 23.0295 9.21558 23.5252 9.99278C23.9783 10.6788 24.2695 11.474 24.4016 12.3782C24.4783 12.9088 24.511 13.6726 24.4968 14.6695H16.5068C16.5537 15.8278 16.933 16.6394 17.6545 17.1042C18.0935 17.3942 18.6204 17.5377 19.2369 17.5377C19.8875 17.5377 20.4201 17.3628 20.8278 17.0101C21.0522 16.8188 21.2482 16.5542 21.4187 16.2149H24.3462C24.2695 16.8995 23.9144 17.5945 23.2837 18.3029C22.3022 19.4239 20.9258 19.9844 19.1588 19.9844C17.6986 19.9844 16.4088 19.5121 15.2966 18.5645C14.1773 17.6184 13.6219 16.0774 13.6219 13.9461C13.6219 11.9448 14.1248 10.4128 15.1304 9.34411C16.1389 8.27994 17.4457 7.74486 19.0522 7.74486C20.0068 7.74486 20.8676 7.92422 21.6318 8.28592ZM17.3421 10.8925C16.9372 11.332 16.6816 11.9283 16.5779 12.6786H21.5195C21.4684 11.8775 21.2113 11.2707 20.7568 10.8552C20.2965 10.4412 19.7298 10.2334 19.0537 10.2334C18.3193 10.2334 17.7469 10.4531 17.3421 10.8925ZM15.8364 6.65528H22.1914V4.71375H15.8364V6.65528Z" fill="#9E3E40"/>
</g>
<defs>
<clipPath id="clip0_1512_11190">
<rect width="24" height="24" fill="white" transform="translate(0.5)"/>
</clipPath>
</defs>
</svg>
