<svg width="25" height="24" viewBox="0 0 25 24" fill="none" xmlns="http://www.w3.org/2000/svg">
<path d="M12.5008 0.000768932C5.87109 0.000768932 0.5 5.51177 0.5 12.3038C0.5 17.7426 3.93822 22.3524 8.70326 23.9787C9.30555 24.0948 9.52306 23.7142 9.52306 23.385C9.52306 23.0929 9.51631 22.3201 9.51181 21.2943C6.17185 22.0356 5.46831 19.6403 5.46831 19.6403C4.92153 18.2224 4.13248 17.8417 4.13248 17.8417C3.04641 17.0813 4.21873 17.0974 4.21873 17.0974C5.42181 17.1812 6.05485 18.3623 6.05485 18.3623C7.12516 20.2447 8.86302 19.7003 9.55082 19.3835C9.65582 18.5907 9.96859 18.0455 10.3091 17.7418C7.64495 17.4334 4.84352 16.3761 4.84352 11.6618C4.84352 10.3153 5.30855 9.21884 6.07735 8.35763C5.94459 8.04928 5.53806 6.79591 6.18311 5.10116C6.18311 5.10116 7.18742 4.77282 9.48331 6.36299C10.4441 6.09002 11.4642 5.95391 12.4835 5.94699C13.5036 5.95391 14.5229 6.09079 15.4837 6.36299C17.7661 4.77282 18.7696 5.10116 18.7696 5.10116C19.4139 6.79591 19.0074 8.04851 18.8904 8.35763C19.6517 9.21884 20.1167 10.3161 20.1167 11.6618C20.1167 16.3869 17.3116 17.4288 14.6444 17.7295C15.0614 18.0978 15.4522 18.8552 15.4522 20.0048C15.4522 21.6503 15.4372 22.976 15.4372 23.3766C15.4372 23.6965 15.6472 24.0809 16.2652 23.9571C21.0655 22.3477 24.5 17.7341 24.5 12.3031C24.5 5.511 19.1289 0 12.4993 0L12.5008 0.000768932Z" fill="#5A944B"/>
</svg>
