<svg width="24" height="20" viewBox="0 0 24 20" fill="none" xmlns="http://www.w3.org/2000/svg">
<path d="M23.5453 6.89552C23.7281 6.7479 24 6.88599 24 7.11933V16.8574C24 18.1193 22.9922 19.1431 21.75 19.1431H2.25C1.00781 19.1431 0 18.1193 0 16.8574V7.12409C0 6.88599 0.267187 6.75266 0.454687 6.90028C1.50469 7.72885 2.89688 8.78123 7.67813 12.3098C8.66719 13.0431 10.3359 14.586 12 14.5765C13.6734 14.5908 15.375 13.0146 16.3266 12.3098C21.1078 8.78123 22.4953 7.72409 23.5453 6.89552ZM12 13.0479C13.0875 13.0669 14.6531 11.6574 15.4406 11.0765C21.6609 6.49076 22.1344 6.09076 23.5687 4.9479C23.8406 4.73361 24 4.40028 24 4.0479V3.14314C24 1.88123 22.9922 0.857422 21.75 0.857422H2.25C1.00781 0.857422 0 1.88123 0 3.14314V4.0479C0 4.40028 0.159375 4.72885 0.43125 4.9479C1.86563 6.08599 2.33906 6.49076 8.55938 11.0765C9.34688 11.6574 10.9125 13.0669 12 13.0479Z" fill="#5A944B"/>
</svg>
