<svg width="24" height="24" viewBox="0 0 24 24" fill="none" xmlns="http://www.w3.org/2000/svg">
<path d="M22.222 0.00178957H1.77099C0.804431 -0.00911825 0.0117963 0.765131 0 1.7317V22.268C0.0113924 23.235 0.803963 24.01 1.77099 23.9999H22.222C23.1909 24.0119 23.9866 23.2369 24 22.268V1.73022C23.9862 0.761739 23.1904 -0.0124652 22.222 0.000152051" fill="#5A944B"/>
<path d="M16.8928 20.45H20.4489L20.4504 14.1675C20.4504 11.0833 19.7858 8.71259 16.1816 8.71259C14.8038 8.66145 13.5095 9.37231 12.8134 10.5625H12.7656V8.99745H9.35179V20.4497H12.9078V14.7843C12.9078 13.2904 13.1912 11.8435 15.0433 11.8435C16.8691 11.8435 16.8928 13.553 16.8928 14.881V20.45Z" fill="white"/>
<path d="M3.27539 5.36872C3.2756 6.50845 4.19968 7.43222 5.33938 7.43202C5.88669 7.43192 6.41154 7.2144 6.79847 6.82732C7.18541 6.44024 7.40273 5.9153 7.40263 5.36798C7.40243 4.22825 6.47835 3.30448 5.33864 3.30469C4.19893 3.30489 3.27519 4.22899 3.27539 5.36872Z" fill="white"/>
<path d="M3.55765 20.45H7.11741V8.99745H3.55765V20.45Z" fill="white"/>
</svg>
