<svg width="16" height="17" viewBox="0 0 16 17" fill="none" xmlns="http://www.w3.org/2000/svg">
<path d="M12.4962 7.50157C12.1522 7.50157 11.8802 7.22156 11.8802 6.88551C11.8802 6.5895 11.5842 5.97347 11.0881 5.43744C10.6001 4.91742 10.0641 4.6134 9.61604 4.6134C9.27202 4.6134 9 4.33339 9 3.99738C9 3.66136 9.28002 3.38135 9.61604 3.38135C10.4161 3.38135 11.2561 3.81337 11.9922 4.5894C12.6802 5.31744 13.1203 6.22148 13.1203 6.87751C13.1203 7.22156 12.8402 7.50157 12.4962 7.50157Z" fill="white"/>
<path d="M15.3842 7.50032C15.0402 7.50032 14.7682 7.22031 14.7682 6.88429C14.7682 4.04416 12.456 1.74006 9.62385 1.74006C9.27983 1.74006 9.00781 1.46004 9.00781 1.12403C9.00781 0.788013 9.27983 0.5 9.61585 0.5C13.1361 0.5 16.0003 3.36413 16.0003 6.88429C16.0003 7.22031 15.7202 7.50032 15.3842 7.50032Z" fill="white"/>
<path d="M7.24046 10.8605L5.76037 12.3405C5.44835 12.6526 4.95231 12.6526 4.63229 12.3485C4.54429 12.2605 4.45628 12.1805 4.36828 12.0925C3.54422 11.2605 2.80018 10.3885 2.13614 9.47641C1.48009 8.56437 0.95206 7.65233 0.568036 6.74829C0.192012 5.83625 0 4.96421 0 4.13217C0 3.58814 0.096006 3.06812 0.288018 2.5881C0.48003 2.10007 0.78405 1.65205 1.20808 1.25203C1.72011 0.748011 2.28014 0.5 2.87218 0.5C3.0962 0.5 3.32021 0.548002 3.52022 0.644007C3.72824 0.740011 3.91225 0.884018 4.05626 1.09203L5.91237 3.70815C6.05638 3.90816 6.16039 4.09217 6.2324 4.26817C6.3044 4.43618 6.3444 4.60419 6.3444 4.7562C6.3444 4.94821 6.2884 5.14021 6.17639 5.32422C6.07239 5.50823 5.92038 5.70024 5.72836 5.89225L5.12032 6.52428C5.03232 6.61228 4.99232 6.71629 4.99232 6.84429C4.99232 6.9083 5.00032 6.9643 5.01632 7.0283C5.04032 7.0923 5.06432 7.14031 5.08032 7.18831C5.22433 7.45232 5.47235 7.79634 5.82437 8.21236C6.18439 8.62838 6.56842 9.05239 6.98444 9.47641C7.06445 9.55642 7.15245 9.63642 7.23246 9.71643C7.55248 10.0284 7.56048 10.5405 7.24046 10.8605Z" fill="white"/>
<path d="M15.9777 13.564C15.9777 13.788 15.9377 14.02 15.8577 14.244C15.8337 14.308 15.8097 14.372 15.7777 14.436C15.6417 14.724 15.4656 14.9961 15.2336 15.2521C14.8416 15.6841 14.4096 15.9961 13.9215 16.1961C13.9135 16.1961 13.9055 16.2041 13.8975 16.2041C13.4255 16.3961 12.9135 16.5001 12.3614 16.5001C11.5454 16.5001 10.6733 16.3081 9.75328 15.9161C8.83322 15.5241 7.91316 14.9961 7.00111 14.332C6.68909 14.1 6.37707 13.868 6.08105 13.62L8.69721 11.0039C8.92123 11.1719 9.12124 11.2999 9.28925 11.3879C9.32925 11.4039 9.37726 11.4279 9.43326 11.4519C9.49726 11.4759 9.56127 11.4839 9.63327 11.4839C9.76928 11.4839 9.87329 11.4359 9.96129 11.3479L10.5693 10.7479C10.7693 10.5479 10.9614 10.3958 11.1454 10.2998C11.3294 10.1878 11.5134 10.1318 11.7134 10.1318C11.8654 10.1318 12.0254 10.1638 12.2014 10.2358C12.3774 10.3078 12.5615 10.4118 12.7615 10.5479L15.4096 12.4279C15.6177 12.5719 15.7617 12.74 15.8497 12.94C15.9297 13.14 15.9777 13.34 15.9777 13.564Z" fill="white"/>
</svg>
