<svg width="86" height="162" viewBox="0 0 86 162" fill="none" xmlns="http://www.w3.org/2000/svg">
<g clip-path="url(#clip0_1512_11151)">
<mask id="mask0_1512_11151" style="mask-type:luminance" maskUnits="userSpaceOnUse" x="0" y="0" width="86" height="162">
<path d="M85.2632 0H0V162H85.2632V0Z" fill="white"/>
</mask>
<g mask="url(#mask0_1512_11151)">
<path fill-rule="evenodd" clip-rule="evenodd" d="M66.079 44.7628C66.079 48.9398 65.337 52.5556 64.0471 55.6961C62.7573 58.8368 60.9193 61.5025 58.7263 63.7799C57.8462 64.6939 56.9155 65.5374 55.955 66.3192C54.9947 67.1011 54.0048 67.8212 53.0058 68.4888C54.5648 69.6311 56.1686 70.8813 57.7807 72.209C59.393 73.5368 61.0139 74.9421 62.6077 76.3942C65.474 79.0058 68.3514 81.8587 71.02 84.8066C73.6885 87.7544 76.1481 90.7974 78.1793 93.7891H78.2104H78.2417C80.4609 97.1525 82.2161 100.849 83.4168 104.787C84.6173 108.725 85.2632 112.906 85.2632 117.236V134.289V151.342V153.998V156.654C85.2632 158.13 84.6648 159.466 83.6975 160.434C82.73 161.401 81.3937 162 79.9176 162H77.2614H74.6053H42.6316H10.6579H8.00178H5.34566C3.8695 162 2.53308 161.401 1.56571 160.434C0.598332 159.466 0 158.13 0 156.654V153.998V151.342V134.289V117.236C1.09847e-06 112.906 0.645828 108.725 1.84643 104.787C3.04703 100.849 4.80238 97.1525 7.02149 93.7891H7.05269H7.0839C9.11493 90.7974 11.5747 87.7544 14.2432 84.8066C16.9118 81.8587 19.7892 79.0058 22.6555 76.3942C24.2493 74.9421 25.8701 73.5368 27.4824 72.209C29.0948 70.8813 30.6984 69.6311 32.2574 68.4888C31.2583 67.8212 30.2684 67.1011 29.3079 66.3192C28.3477 65.5374 27.417 64.6939 26.5369 63.7799C24.3439 61.5025 22.5059 58.8368 21.2161 55.6961C19.9263 52.5556 19.1847 48.9398 19.1847 44.7628C19.1847 38.2881 21.8086 32.4263 26.0517 28.183C30.2951 23.9398 36.1569 21.3154 42.6316 21.3154C49.1063 21.3154 54.9681 23.9398 59.2114 28.183C63.4546 32.4263 66.079 38.2881 66.079 44.7628ZM29.8421 44.7628C29.8421 47.5134 30.3 49.7594 31.0752 51.648C31.8503 53.5366 32.9431 55.0675 34.214 56.3872C35.3294 57.5455 36.6084 58.5707 38.0212 59.5236C39.434 60.4764 40.9807 61.3567 42.6316 62.2253C44.2825 61.3567 45.8292 60.4764 47.242 59.5236C48.6546 58.5707 49.9335 57.5455 51.0492 56.3872C52.3198 55.0675 53.4129 53.5366 54.1879 51.648C54.9632 49.7594 55.4206 47.5134 55.4206 44.7628C55.4206 41.2312 53.9895 38.0338 51.675 35.7194C49.3605 33.4049 46.1632 31.9733 42.6316 31.9733C39.1 31.9733 35.9026 33.4049 33.5881 35.7194C31.2737 38.0338 29.8421 41.2312 29.8421 44.7628ZM70.11 100.913C69.6421 100.178 69.1341 99.4293 68.5906 98.6707C68.0468 97.912 67.4677 97.1434 66.8574 96.3688C66.4671 95.916 66.3874 95.8143 66.18 95.5573C65.9726 95.3 65.6371 94.8873 64.7348 93.8124C64.4662 93.4924 64.4656 93.4866 64.5323 93.5608C64.599 93.635 64.7327 93.7891 64.7327 93.7891C64.7327 93.7891 63.2359 92.1651 61.3245 90.1635C59.4131 88.162 57.0875 85.7829 55.4296 84.2725C53.0853 82.1364 50.7629 80.1884 48.5881 78.5042C46.4132 76.82 44.3859 75.3998 42.6316 74.3191C40.8773 75.3998 38.8499 76.82 36.6751 78.5042C34.5002 80.1884 32.1781 82.1364 29.8336 84.2725C28.1759 85.7829 26.5439 87.3539 24.9793 88.9513C23.415 90.5487 21.9182 92.1727 20.5305 93.7891L20.542 93.7778L20.5536 93.7665C20.1154 94.1728 19.7736 94.597 19.4438 95.0329C19.1139 95.4686 18.7959 95.916 18.4056 96.369C17.7955 97.1436 17.2162 97.9122 16.6726 98.6709C16.1289 99.4295 15.6209 100.178 15.1532 100.913L15.1458 100.908L15.1384 100.904C13.7155 103.294 12.5953 105.885 11.8309 108.625C11.0666 111.365 10.6579 114.253 10.6579 117.236V126.271V135.305C10.6579 139.733 12.4529 143.742 15.355 146.645C18.2571 149.547 22.2665 151.342 26.6948 151.342H42.6316H58.5683C62.9967 151.342 67.006 149.547 69.9081 146.645C72.8103 143.742 74.6053 139.733 74.6053 135.305V126.271V117.236C74.6053 114.253 74.1966 111.365 73.4323 108.625C72.6679 105.885 71.5477 103.294 70.1247 100.904L70.1174 100.908L70.11 100.913Z" fill="#668843"/>
<path fill-rule="evenodd" clip-rule="evenodd" d="M19.1842 117.237C19.1842 113.06 19.9263 109.444 21.2161 106.303C22.5059 103.163 24.3439 100.497 26.5369 98.2198C27.417 97.3057 28.3477 96.4623 29.3081 95.6804C30.2684 94.8986 31.2585 94.1785 32.2574 93.5109C30.6984 92.3686 29.0948 91.1184 27.4824 89.7906C25.8701 88.4627 24.2493 87.0575 22.6555 85.6053C19.7892 82.9937 16.9118 80.1408 14.2432 77.193C11.5747 74.245 9.11493 71.202 7.0839 68.2105H7.05269H7.02146C4.80238 64.8471 3.04701 61.1508 1.84641 57.2124C0.645819 53.2744 -3.78625e-07 49.0941 0 44.7632L1.49079e-06 27.7105L2.98158e-06 10.6579L3.21228e-06 8.01901L3.44298e-06 5.38011C3.57286e-06 3.89444 0.602194 2.54942 1.5758 1.5758C2.54941 0.602189 3.89444 -1.29877e-07 5.38013 0L8.019 2.30701e-07L10.6579 4.61402e-07L42.6316 3.25663e-06L74.6053 6.05186e-06L77.2442 6.28256e-06L79.8831 6.51326e-06C81.3688 6.64315e-06 82.7138 0.602197 83.6873 1.57581C84.661 2.54942 85.2632 3.89444 85.2632 5.38011V8.01901V10.6579V27.7105V44.7632C85.2632 49.0941 84.6173 53.2744 83.4168 57.2124C82.2161 61.1508 80.4609 64.8471 78.2417 68.2105H78.2104H78.1793C77.7651 68.8206 77.3333 69.4326 76.8852 70.0456C76.4374 70.6587 75.9733 71.2728 75.4954 71.8862C73.6292 74.2817 71.5484 76.6721 69.3633 78.9831C67.1784 81.2944 64.8895 83.5264 62.6077 85.6053C61.0139 87.0575 59.393 88.4627 57.7807 89.7906C56.1686 91.1184 54.5648 92.3686 53.0058 93.5109C54.0048 94.1785 54.9947 94.8986 55.9552 95.6804C56.9155 96.4623 57.8462 97.3057 58.7263 98.2198C60.9193 100.497 62.7573 103.163 64.0471 106.303C65.337 109.444 66.0785 113.06 66.0785 117.237C66.0785 123.712 63.4546 129.573 59.2114 133.817C54.9681 138.06 49.1063 140.684 42.6316 140.684C36.1569 140.684 30.2951 138.06 26.0517 133.817C21.8086 129.573 19.1842 123.712 19.1842 117.237ZM55.4211 117.237C55.4211 114.486 54.9632 112.24 54.1879 110.352C53.4129 108.463 52.3198 106.932 51.0492 105.613C49.9337 104.454 48.6548 103.429 47.242 102.476C45.8292 101.523 44.2825 100.643 42.6316 99.7743C40.9807 100.643 39.434 101.523 38.0212 102.476C36.6084 103.429 35.3294 104.454 34.214 105.613C32.9433 106.932 31.8503 108.463 31.0752 110.352C30.3 112.24 29.8425 114.486 29.8425 117.237C29.8425 120.768 31.2737 123.966 33.5881 126.28C35.9026 128.595 39.1 130.026 42.6316 130.026C46.1632 130.026 49.3605 128.595 51.675 126.28C53.9895 123.966 55.4211 120.768 55.4211 117.237ZM15.1532 61.0866C15.6209 61.8216 16.129 62.5702 16.6727 63.329C17.2163 64.0876 17.7956 64.8561 18.4057 65.6309C18.7961 66.0837 19.3264 66.7302 19.7592 67.2633C20.1919 67.7966 20.527 68.2167 20.527 68.2167L20.5288 68.2135L20.5305 68.2105C21.9182 69.8269 23.415 71.4508 24.9793 73.0482C26.5439 74.6456 28.1759 76.2165 29.8336 77.7272C32.1779 79.8632 34.5002 81.8111 36.6751 83.4952C38.8499 85.1794 40.8773 86.5997 42.6316 87.6804C44.3859 86.5997 46.4132 85.1794 48.5881 83.4952C50.7629 81.8111 53.0853 79.8632 55.4296 77.7272C57.0875 76.2165 59.4131 73.8375 61.3245 71.8359C63.2359 69.8344 64.7327 68.2105 64.7327 68.2105L64.7358 68.2014L64.739 68.192C64.739 68.192 65.0735 67.778 65.5056 67.2509C65.9376 66.7238 66.4673 66.0834 66.8576 65.6307C67.4677 64.8561 68.0468 64.0874 68.5906 63.3288C69.1344 62.5702 69.6423 61.8216 70.11 61.0866L70.1174 61.0913L70.1247 61.096C71.5477 58.7058 72.6679 56.1145 73.4323 53.3745C74.1966 50.6348 74.6053 47.7467 74.6053 44.7632V35.7807V26.7982C74.6053 22.3413 72.7988 18.3061 69.8779 15.3853C66.9569 12.4645 62.9219 10.6579 58.465 10.6579H42.6316H26.7982C22.3413 10.6579 18.3061 12.4645 15.3853 15.3853C12.4645 18.3061 10.6579 22.3413 10.6579 26.7982V35.7807V44.7632C10.6579 47.7467 11.0666 50.6348 11.8309 53.3745C12.5953 56.1145 13.7155 58.7058 15.1384 61.096L15.1458 61.0913L15.1532 61.0866Z" fill="#E86C6E"/>
</g>
</g>
<defs>
<clipPath id="clip0_1512_11151">
<rect width="85.2632" height="162" fill="white"/>
</clipPath>
</defs>
</svg>
