<svg width="54" height="103" viewBox="0 0 54 103" fill="none" xmlns="http://www.w3.org/2000/svg">
<g clip-path="url(#clip0_1914_3944)">
<mask id="mask0_1914_3944" style="mask-type:luminance" maskUnits="userSpaceOnUse" x="0" y="0" width="54" height="103">
<path d="M54 0H0V102.6H54V0Z" fill="white"/>
</mask>
<g mask="url(#mask0_1914_3944)">
<path fill-rule="evenodd" clip-rule="evenodd" d="M41.85 28.35C41.85 30.9955 41.3801 33.2855 40.5632 35.2744C39.7463 37.2635 38.5822 38.9518 37.1933 40.3942C36.6359 40.973 36.0465 41.5072 35.4382 42.0024C34.83 42.4976 34.2031 42.9536 33.5703 43.3764C34.5577 44.0999 35.5734 44.8917 36.5944 45.7326C37.6156 46.5735 38.6421 47.4636 39.6515 48.3832C41.4669 50.0372 43.2892 51.844 44.9793 53.7111C46.6694 55.578 48.2271 57.5053 49.5135 59.4H49.5332H49.5531C50.9586 61.5302 52.0702 63.8712 52.8306 66.3653C53.5909 68.8596 54 71.5071 54 74.25V85.05V95.85V97.5322V99.2145C54 100.149 53.6211 100.996 53.0084 101.608C52.3957 102.221 51.5493 102.6 50.6145 102.6H48.9322H47.25H27H6.75H5.06779H3.38558C2.45068 102.6 1.60429 102.221 0.991614 101.608C0.378944 100.996 0 100.149 0 99.2145V97.5322V95.85V85.05V74.25C6.95695e-07 71.5071 0.409024 68.8596 1.1694 66.3653C1.92978 63.8712 3.04151 61.5302 4.44694 59.4H4.4667H4.48647C5.77279 57.5053 7.33062 55.578 9.02071 53.7111C10.7108 51.844 12.5331 50.0372 14.3485 48.3832C15.3579 47.4636 16.3844 46.5735 17.4055 45.7326C18.4267 44.8917 19.4423 44.0999 20.4297 43.3764C19.7969 42.9536 19.17 42.4976 18.5617 42.0024C17.9535 41.5072 17.3641 40.973 16.8067 40.3942C15.4178 38.9518 14.2537 37.2635 13.4368 35.2744C12.62 33.2855 12.1503 30.9955 12.1503 28.35C12.1503 24.2494 13.8121 20.5369 16.4994 17.8494C19.1869 15.1621 22.8994 13.5 27 13.5C31.1006 13.5 34.8131 15.1621 37.5006 17.8494C40.1879 20.5369 41.85 24.2494 41.85 28.35ZM18.9 28.35C18.9 30.092 19.19 31.5145 19.681 32.7106C20.1718 33.9067 20.864 34.8763 21.6688 35.7121C22.3753 36.4457 23.1853 37.095 24.0801 37.6985C24.9749 38.3019 25.9544 38.8595 27 39.4096C28.0456 38.8595 29.0251 38.3019 29.9199 37.6985C30.8146 37.095 31.6246 36.4457 32.3311 35.7121C33.1359 34.8763 33.8282 33.9067 34.319 32.7106C34.81 31.5145 35.0997 30.092 35.0997 28.35C35.0997 26.1133 34.1933 24.0883 32.7275 22.6225C31.2617 21.1567 29.2367 20.25 27 20.25C24.7633 20.25 22.7383 21.1567 21.2725 22.6225C19.8067 24.0883 18.9 26.1133 18.9 28.35ZM44.403 63.9118C44.1067 63.4464 43.785 62.9721 43.4407 62.4916C43.0963 62.0112 42.7295 61.5244 42.343 61.0338C42.0958 60.747 42.0453 60.6826 41.914 60.5198C41.7826 60.3569 41.5701 60.0955 40.9987 59.4147C40.8286 59.2121 40.8282 59.2084 40.8704 59.2554C40.9127 59.3024 40.9973 59.4 40.9973 59.4C40.9973 59.4 40.0494 58.3714 38.8388 57.1038C37.6283 55.8361 36.1554 54.3294 35.1054 53.3728C33.6207 52.02 32.1498 50.7862 30.7724 49.7196C29.395 48.6529 28.111 47.7534 27 47.069C25.8889 47.7534 24.605 48.6529 23.2276 49.7196C21.8502 50.7862 20.3795 52.02 18.8946 53.3728C17.8447 54.3294 16.8111 55.3243 15.8202 56.336C14.8295 57.3477 13.8815 58.3763 13.0026 59.4L13.01 59.3928L13.0173 59.3857C12.7398 59.643 12.5233 59.9116 12.3144 60.1877C12.1054 60.4637 11.9041 60.747 11.6569 61.0339C11.2705 61.5245 10.9036 62.0113 10.5593 62.4918C10.215 62.9722 9.89324 63.4464 9.59703 63.9118L9.59234 63.9089L9.58766 63.9059C8.68647 65.4196 7.97704 67.0608 7.49293 68.7961C7.00882 70.5313 6.75 72.3604 6.75 74.25V79.9716V85.6933C6.75 88.4979 7.88683 91.0371 9.72485 92.8751C11.5629 94.7132 14.1021 95.85 16.9067 95.85H27H37.0933C39.8979 95.85 42.4371 94.7132 44.2751 92.8751C46.1132 91.0371 47.25 88.4979 47.25 85.6933V79.9716V74.25C47.25 72.3604 46.9912 70.5313 46.5071 68.7961C46.023 67.0608 45.3136 65.4196 44.4123 63.9059L44.4077 63.9089L44.403 63.9118Z" fill="#E9C5BC"/>
<path fill-rule="evenodd" clip-rule="evenodd" d="M12.15 74.25C12.15 71.6044 12.62 69.3145 13.4368 67.3254C14.2537 65.3365 15.4178 63.6482 16.8067 62.2058C17.3641 61.627 17.9535 61.0928 18.5618 60.5976C19.17 60.1024 19.7971 59.6464 20.4297 59.2236C19.4423 58.5001 18.4267 57.7083 17.4055 56.8674C16.3844 56.0264 15.3579 55.1364 14.3485 54.2167C12.5331 52.5627 10.7108 50.7558 9.02071 48.8889C7.33063 47.0219 5.77279 45.0946 4.48647 43.2H4.4667H4.44693C3.04151 41.0698 1.92977 38.7288 1.1694 36.2345C0.409019 33.7404 -2.39796e-07 31.0929 0 28.35L9.44166e-07 17.55L1.88833e-06 6.75L2.03444e-06 5.0787L2.18055e-06 3.4074C2.26281e-06 2.46648 0.38139 1.61463 0.998009 0.998005C1.61463 0.381386 2.46648 -8.22555e-08 3.40741 0L5.0787 1.46111e-07L6.75 2.92221e-07L27 2.06253e-06L47.25 3.83285e-06L48.9213 3.97896e-06L50.5926 4.12507e-06C51.5336 4.20732e-06 52.3854 0.381392 53.0019 0.998011C53.6186 1.61463 54 2.46648 54 3.4074V5.0787V6.75V17.55V28.35C54 31.0929 53.5909 33.7404 52.8306 36.2345C52.0702 38.7288 50.9586 41.0698 49.5531 43.2H49.5332H49.5135C49.2512 43.5864 48.9777 43.974 48.694 44.3622C48.4103 44.7505 48.1164 45.1394 47.8138 45.5279C46.6318 47.0451 45.314 48.559 43.9301 50.0226C42.5463 51.4864 41.0967 52.9 39.6515 54.2167C38.6421 55.1364 37.6156 56.0264 36.5944 56.8674C35.5734 57.7083 34.5577 58.5001 33.5703 59.2236C34.2031 59.6464 34.83 60.1024 35.4383 60.5976C36.0465 61.0928 36.6359 61.627 37.1933 62.2058C38.5822 63.6482 39.7463 65.3365 40.5632 67.3254C41.3801 69.3145 41.8497 71.6044 41.8497 74.25C41.8497 78.3506 40.1879 82.0631 37.5006 84.7506C34.8131 87.4379 31.1006 89.1 27 89.1C22.8994 89.1 19.1869 87.4379 16.4994 84.7506C13.8121 82.0631 12.15 78.3506 12.15 74.25ZM35.1 74.25C35.1 72.508 34.81 71.0855 34.319 69.8894C33.8282 68.6933 33.1359 67.7237 32.3311 66.8879C31.6247 66.1542 30.8147 65.505 29.9199 64.9015C29.0251 64.2981 28.0456 63.7405 27 63.1904C25.9544 63.7405 24.9749 64.2981 24.0801 64.9015C23.1853 65.505 22.3753 66.1542 21.6688 66.8879C20.8641 67.7237 20.1718 68.6933 19.681 69.8894C19.19 71.0855 18.9003 72.508 18.9003 74.25C18.9003 76.4867 19.8067 78.5117 21.2725 79.9775C22.7383 81.4433 24.7633 82.35 27 82.35C29.2367 82.35 31.2617 81.4433 32.7275 79.9775C34.1933 78.5117 35.1 76.4867 35.1 74.25ZM9.59704 38.6882C9.89326 39.1536 10.215 39.6278 10.5593 40.1084C10.9037 40.5888 11.2705 41.0755 11.657 41.5662C11.9042 41.853 12.2401 42.2624 12.5141 42.6001C12.7882 42.9378 13.0005 43.2039 13.0005 43.2039L13.0016 43.2019L13.0026 43.2C13.8815 44.2237 14.8295 45.2521 15.8202 46.2638C16.8111 47.2755 17.8447 48.2705 18.8946 49.2272C20.3793 50.58 21.8502 51.8137 23.2276 52.8803C24.605 53.9469 25.8889 54.8465 27 55.5309C28.111 54.8465 29.395 53.9469 30.7724 52.8803C32.1498 51.8137 33.6207 50.58 35.1054 49.2272C36.1554 48.2705 37.6283 46.7637 38.8388 45.4961C40.0494 44.2284 40.9973 43.2 40.9973 43.2L40.9994 43.1942L41.0014 43.1883C41.0014 43.1883 41.2132 42.9261 41.4868 42.5922C41.7605 42.2584 42.096 41.8528 42.3432 41.5661C42.7295 41.0755 43.0963 40.5887 43.4407 40.1082C43.7851 39.6278 44.1068 39.1536 44.403 38.6882L44.4077 38.6911L44.4123 38.6941C45.3136 37.1804 46.023 35.5392 46.5071 33.8039C46.9912 32.0687 47.25 30.2396 47.25 28.35V22.6611V16.9722C47.25 14.1495 46.1059 11.5939 44.256 9.74402C42.4061 7.89417 39.8505 6.75 37.0278 6.75H27H16.9722C14.1495 6.75 11.5939 7.89417 9.74402 9.74402C7.89417 11.5939 6.75 14.1495 6.75 16.9722V22.6611V28.35C6.75 30.2396 7.00882 32.0687 7.49293 33.8039C7.97704 35.5392 8.68645 37.1804 9.58766 38.6941L9.59234 38.6911L9.59704 38.6882Z" fill="#E9C5BC"/>
</g>
</g>
<defs>
<clipPath id="clip0_1914_3944">
<rect width="54" height="102.6" fill="white"/>
</clipPath>
</defs>
</svg>
