<svg width="42" height="42" viewBox="0 0 42 42" fill="none" xmlns="http://www.w3.org/2000/svg">
<g filter="url(#filter0_d_1291_918)">
<g clip-path="url(#clip0_1291_918)">
<path d="M14.625 20.4167C13.3641 20.4167 12.1316 20.0428 11.0832 19.3423C10.0349 18.6418 9.21778 17.6462 8.73527 16.4813C8.25276 15.3164 8.12651 14.0346 8.37249 12.798C8.61847 11.5613 9.22563 10.4254 10.1172 9.53386C11.0088 8.6423 12.1447 8.03514 13.3813 7.78916C14.6179 7.54318 15.8997 7.66943 17.0646 8.15194C18.2295 8.63445 19.2251 9.45155 19.9256 10.4999C20.6261 11.5483 21 12.7808 21 14.0417C20.9981 15.7318 20.3259 17.3523 19.1307 18.5474C17.9356 19.7425 16.3152 20.4148 14.625 20.4167ZM14.625 10.5C13.9245 10.5 13.2398 10.7077 12.6574 11.0969C12.0749 11.486 11.621 12.0392 11.3529 12.6863C11.0849 13.3335 11.0147 14.0456 11.1514 14.7326C11.288 15.4196 11.6254 16.0507 12.1207 16.546C12.616 17.0413 13.247 17.3786 13.9341 17.5153C14.6211 17.6519 15.3332 17.5818 15.9803 17.3137C16.6275 17.0457 17.1806 16.5917 17.5698 16.0093C17.959 15.4269 18.1667 14.7421 18.1667 14.0417C18.1667 13.1024 17.7935 12.2015 17.1293 11.5373C16.4651 10.8731 15.5643 10.5 14.625 10.5ZM25.25 34.5833V33.875C25.25 31.0571 24.1306 28.3546 22.138 26.362C20.1454 24.3694 17.4429 23.25 14.625 23.25C11.8071 23.25 9.10456 24.3694 7.11199 26.362C5.11942 28.3546 4 31.0571 4 33.875L4 34.5833C4 34.9591 4.14926 35.3194 4.41493 35.5851C4.68061 35.8507 5.04094 36 5.41667 36C5.79239 36 6.15272 35.8507 6.4184 35.5851C6.68408 35.3194 6.83333 34.9591 6.83333 34.5833V33.875C6.83333 31.8085 7.65424 29.8267 9.11546 28.3655C10.5767 26.9042 12.5585 26.0833 14.625 26.0833C16.6915 26.0833 18.6733 26.9042 20.1345 28.3655C21.5958 29.8267 22.4167 31.8085 22.4167 33.875V34.5833C22.4167 34.9591 22.5659 35.3194 22.8316 35.5851C23.0973 35.8507 23.4576 36 23.8333 36C24.2091 36 24.5694 35.8507 24.8351 35.5851C25.1007 35.3194 25.25 34.9591 25.25 34.5833ZM38 27.5C37.9999 25.5856 37.4458 23.7122 36.4044 22.1059C35.363 20.4995 33.879 19.2289 32.1314 18.4475C30.3838 17.666 28.4473 17.4071 26.5558 17.702C24.6643 17.9968 22.8986 18.8329 21.4718 20.1093C21.3312 20.2328 21.2165 20.3829 21.1342 20.5511C21.052 20.7192 21.0039 20.9019 20.9927 21.0887C20.9816 21.2755 21.0075 21.4627 21.0691 21.6395C21.1306 21.8162 21.2266 21.979 21.3514 22.1184C21.4762 22.2578 21.6275 22.3711 21.7963 22.4518C21.9652 22.5324 22.1484 22.5788 22.3353 22.5883C22.5222 22.5977 22.7091 22.5701 22.8853 22.5069C23.0614 22.4437 23.2233 22.3462 23.3616 22.2201C24.3808 21.3086 25.642 20.7116 26.9931 20.5012C28.3441 20.2907 29.7272 20.4758 30.9753 21.034C32.2235 21.5923 33.2834 22.4999 34.0271 23.6472C34.7709 24.7946 35.1666 26.1327 35.1667 27.5C35.1667 27.8757 35.3159 28.2361 35.5816 28.5017C35.8473 28.7674 36.2076 28.9167 36.5833 28.9167C36.9591 28.9167 37.3194 28.7674 37.5851 28.5017C37.8507 28.2361 38 27.8757 38 27.5ZM28.7917 14.75C27.5308 14.75 26.2983 14.3761 25.2499 13.6756C24.2015 12.9751 23.3844 11.9795 22.9019 10.8146C22.4194 9.64973 22.2932 8.36793 22.5392 7.1313C22.7851 5.89467 23.3923 4.75876 24.2839 3.8672C25.1754 2.97564 26.3113 2.36848 27.548 2.1225C28.7846 1.87652 30.0664 2.00276 31.2313 2.48527C32.3961 2.96778 33.3918 3.78488 34.0923 4.83324C34.7928 5.88161 35.1667 7.11415 35.1667 8.375C35.1648 10.0652 34.4925 11.6856 33.2974 12.8807C32.1023 14.0759 30.4818 14.7481 28.7917 14.75ZM28.7917 4.83334C28.0912 4.83334 27.4064 5.04105 26.824 5.43021C26.2416 5.81938 25.7877 6.37251 25.5196 7.01967C25.2515 7.66682 25.1814 8.37893 25.3181 9.06595C25.4547 9.75296 25.792 10.384 26.2873 10.8793C26.7826 11.3747 27.4137 11.712 28.1007 11.8486C28.7877 11.9853 29.4998 11.9151 30.147 11.6471C30.7942 11.379 31.3473 10.9251 31.7365 10.3426C32.1256 9.76022 32.3333 9.07548 32.3333 8.375C32.3333 7.43569 31.9602 6.53486 31.296 5.87067C30.6318 5.20648 29.731 4.83334 28.7917 4.83334Z" fill="#48762D"/>
</g>
</g>
<defs>
<filter id="filter0_d_1291_918" x="0" y="0" width="42" height="42" filterUnits="userSpaceOnUse" color-interpolation-filters="sRGB">
<feFlood flood-opacity="0" result="BackgroundImageFix"/>
<feColorMatrix in="SourceAlpha" type="matrix" values="0 0 0 0 0 0 0 0 0 0 0 0 0 0 0 0 0 0 127 0" result="hardAlpha"/>
<feOffset dy="2"/>
<feGaussianBlur stdDeviation="2"/>
<feComposite in2="hardAlpha" operator="out"/>
<feColorMatrix type="matrix" values="0 0 0 0 0.475833 0 0 0 0 0.425078 0 0 0 0 0.348944 0 0 0 0.55 0"/>
<feBlend mode="normal" in2="BackgroundImageFix" result="effect1_dropShadow_1291_918"/>
<feBlend mode="normal" in="SourceGraphic" in2="effect1_dropShadow_1291_918" result="shape"/>
</filter>
<clipPath id="clip0_1291_918">
<rect width="34" height="34" fill="white" transform="translate(4 2)"/>
</clipPath>
</defs>
</svg>
