<svg width="42" height="39" viewBox="0 0 42 39" fill="none" xmlns="http://www.w3.org/2000/svg">
<g filter="url(#filter0_d_1546_10269)">
<path d="M37.9911 17.0829C37.9911 18.1455 37.1056 18.9778 36.102 18.9778H34.213L34.2543 28.4349C34.2543 28.5943 34.2425 28.7537 34.2248 28.9131V29.8635C34.2248 31.1681 33.1681 32.2248 31.8635 32.2248H30.919C30.854 32.2248 30.7891 32.2248 30.7241 32.2189C30.6415 32.2248 30.5589 32.2248 30.4762 32.2248H28.5576H27.1409C25.8362 32.2248 24.7795 31.1681 24.7795 29.8635V28.4467V24.6686C24.7795 23.6237 23.9354 22.7795 22.8905 22.7795H19.1124C18.0675 22.7795 17.2233 23.6237 17.2233 24.6686V28.4467V29.8635C17.2233 31.1681 16.1667 32.2248 14.862 32.2248H13.4452H11.5621C11.4736 32.2248 11.385 32.2189 11.2965 32.213C11.2256 32.2189 11.1548 32.2248 11.0839 32.2248H10.1394C8.83479 32.2248 7.7781 31.1681 7.7781 29.8635V23.2518C7.7781 23.1987 7.7781 23.1396 7.784 23.0865V18.9778H5.88905C4.82646 18.9778 4 18.1514 4 17.0829C4 16.5516 4.1771 16.0793 4.59033 15.6661L19.7263 2.47226C20.1396 2.05903 20.6118 2 21.0251 2C21.4383 2 21.9106 2.11807 22.2647 2.41323L37.3417 15.6661C37.814 16.0793 38.0501 16.5516 37.9911 17.0829Z" fill="#48762D"/>
</g>
<defs>
<filter id="filter0_d_1546_10269" x="0" y="0" width="42" height="38.2249" filterUnits="userSpaceOnUse" color-interpolation-filters="sRGB">
<feFlood flood-opacity="0" result="BackgroundImageFix"/>
<feColorMatrix in="SourceAlpha" type="matrix" values="0 0 0 0 0 0 0 0 0 0 0 0 0 0 0 0 0 0 127 0" result="hardAlpha"/>
<feOffset dy="2"/>
<feGaussianBlur stdDeviation="2"/>
<feComposite in2="hardAlpha" operator="out"/>
<feColorMatrix type="matrix" values="0 0 0 0 0 0 0 0 0 0 0 0 0 0 0 0 0 0 0.53 0"/>
<feBlend mode="normal" in2="BackgroundImageFix" result="effect1_dropShadow_1546_10269"/>
<feBlend mode="normal" in="SourceGraphic" in2="effect1_dropShadow_1546_10269" result="shape"/>
</filter>
</defs>
</svg>
