<svg width="42" height="42" viewBox="0 0 42 42" fill="none" xmlns="http://www.w3.org/2000/svg">
<g filter="url(#filter0_d_1291_920)">
<path d="M13.8775 2H9.64427C8.14732 2 6.71167 2.58617 5.65317 3.62955C4.59466 4.67294 4 6.08807 4 7.56364L4 11.7364C4 13.2119 4.59466 14.6271 5.65317 15.6704C6.71167 16.7138 8.14732 17.3 9.64427 17.3H13.8775C15.3744 17.3 16.8101 16.7138 17.8686 15.6704C18.9271 14.6271 19.5217 13.2119 19.5217 11.7364V7.56364C19.5217 6.08807 18.9271 4.67294 17.8686 3.62955C16.8101 2.58617 15.3744 2 13.8775 2ZM16.6996 11.7364C16.6996 12.4741 16.4023 13.1817 15.873 13.7034C15.3438 14.2251 14.6259 14.5182 13.8775 14.5182H9.64427C8.89579 14.5182 8.17797 14.2251 7.64872 13.7034C7.11947 13.1817 6.82213 12.4741 6.82213 11.7364V7.56364C6.82213 6.82585 7.11947 6.11829 7.64872 5.59659C8.17797 5.0749 8.89579 4.78182 9.64427 4.78182H13.8775C14.6259 4.78182 15.3438 5.0749 15.873 5.59659C16.4023 6.11829 16.6996 6.82585 16.6996 7.56364V11.7364Z" fill="#B66365"/>
<path d="M32.3555 2H28.1223C26.6253 2 25.1897 2.58617 24.1312 3.62955C23.0727 4.67294 22.478 6.08807 22.478 7.56364V11.7364C22.478 13.2119 23.0727 14.6271 24.1312 15.6704C25.1897 16.7138 26.6253 17.3 28.1223 17.3H32.3555C33.8525 17.3 35.2881 16.7138 36.3466 15.6704C37.4051 14.6271 37.9998 13.2119 37.9998 11.7364V7.56364C37.9998 6.08807 37.4051 4.67294 36.3466 3.62955C35.2881 2.58617 33.8525 2 32.3555 2ZM35.1776 11.7364C35.1776 12.4741 34.8803 13.1817 34.351 13.7034C33.8218 14.2251 33.104 14.5182 32.3555 14.5182H28.1223C27.3738 14.5182 26.656 14.2251 26.1267 13.7034C25.5975 13.1817 25.3002 12.4741 25.3002 11.7364V7.56364C25.3002 6.82585 25.5975 6.11829 26.1267 5.59659C26.656 5.0749 27.3738 4.78182 28.1223 4.78182H32.3555C33.104 4.78182 33.8218 5.0749 34.351 5.59659C34.8803 6.11829 35.1776 6.82585 35.1776 7.56364V11.7364Z" fill="#48762D"/>
<path d="M13.8775 20.7H9.64427C8.14732 20.7 6.71167 21.2861 5.65317 22.3295C4.59466 23.3729 4 24.788 4 26.2636L4 30.4363C4 31.9119 4.59466 33.327 5.65317 34.3704C6.71167 35.4138 8.14732 36 9.64427 36H13.8775C15.3744 36 16.8101 35.4138 17.8686 34.3704C18.9271 33.327 19.5217 31.9119 19.5217 30.4363V26.2636C19.5217 24.788 18.9271 23.3729 17.8686 22.3295C16.8101 21.2861 15.3744 20.7 13.8775 20.7ZM16.6996 30.4363C16.6996 31.1741 16.4023 31.8817 15.873 32.4034C15.3438 32.925 14.6259 33.2181 13.8775 33.2181H9.64427C8.89579 33.2181 8.17797 32.925 7.64872 32.4034C7.11947 31.8817 6.82213 31.1741 6.82213 30.4363V26.2636C6.82213 25.5258 7.11947 24.8182 7.64872 24.2965C8.17797 23.7749 8.89579 23.4818 9.64427 23.4818H13.8775C14.6259 23.4818 15.3438 23.7749 15.873 24.2965C16.4023 24.8182 16.6996 25.5258 16.6996 26.2636V30.4363Z" fill="#48762D"/>
<path d="M32.3555 20.7H28.1223C26.6253 20.7 25.1897 21.2861 24.1312 22.3295C23.0727 23.3729 22.478 24.788 22.478 26.2636V30.4363C22.478 31.9119 23.0727 33.327 24.1312 34.3704C25.1897 35.4138 26.6253 36 28.1223 36H32.3555C33.8525 36 35.2881 35.4138 36.3466 34.3704C37.4051 33.327 37.9998 31.9119 37.9998 30.4363V26.2636C37.9998 24.788 37.4051 23.3729 36.3466 22.3295C35.2881 21.2861 33.8525 20.7 32.3555 20.7ZM35.1776 30.4363C35.1776 31.1741 34.8803 31.8817 34.351 32.4034C33.8218 32.925 33.104 33.2181 32.3555 33.2181H28.1223C27.3738 33.2181 26.656 32.925 26.1267 32.4034C25.5975 31.8817 25.3002 31.1741 25.3002 30.4363V26.2636C25.3002 25.5258 25.5975 24.8182 26.1267 24.2965C26.656 23.7749 27.3738 23.4818 28.1223 23.4818H32.3555C33.104 23.4818 33.8218 23.7749 34.351 24.2965C34.8803 24.8182 35.1776 25.5258 35.1776 26.2636V30.4363Z" fill="#B66365"/>
</g>
<defs>
<filter id="filter0_d_1291_920" x="0" y="0" width="42" height="42" filterUnits="userSpaceOnUse" color-interpolation-filters="sRGB">
<feFlood flood-opacity="0" result="BackgroundImageFix"/>
<feColorMatrix in="SourceAlpha" type="matrix" values="0 0 0 0 0 0 0 0 0 0 0 0 0 0 0 0 0 0 127 0" result="hardAlpha"/>
<feOffset dy="2"/>
<feGaussianBlur stdDeviation="2"/>
<feComposite in2="hardAlpha" operator="out"/>
<feColorMatrix type="matrix" values="0 0 0 0 0.455 0 0 0 0 0.402675 0 0 0 0 0.34125 0 0 0 0.53 0"/>
<feBlend mode="normal" in2="BackgroundImageFix" result="effect1_dropShadow_1291_920"/>
<feBlend mode="normal" in="SourceGraphic" in2="effect1_dropShadow_1291_920" result="shape"/>
</filter>
</defs>
</svg>
