<svg width="58" height="58" viewBox="0 0 58 58" fill="none" xmlns="http://www.w3.org/2000/svg">
<g filter="url(#filter0_d_1291_916)">
<rect x="6" y="4" width="46" height="46" rx="23" stroke="#B66365" stroke-width="4" shape-rendering="crispEdges"/>
<path d="M28.9999 27C31.9454 27 34.3332 24.7614 34.3332 22C34.3332 19.2386 31.9454 17 28.9999 17C26.0543 17 23.6665 19.2386 23.6665 22C23.6665 24.7614 26.0543 27 28.9999 27Z" fill="#48762D"/>
<path d="M29 28.6667C24.5838 28.6714 21.0049 32.0265 21 36.1667C21 36.627 21.398 37.0001 21.8889 37.0001H36.1111C36.602 37.0001 37 36.627 37 36.1667C36.9951 32.0265 33.4163 28.6713 29 28.6667Z" fill="#48762D"/>
</g>
<defs>
<filter id="filter0_d_1291_916" x="0" y="0" width="58" height="58" filterUnits="userSpaceOnUse" color-interpolation-filters="sRGB">
<feFlood flood-opacity="0" result="BackgroundImageFix"/>
<feColorMatrix in="SourceAlpha" type="matrix" values="0 0 0 0 0 0 0 0 0 0 0 0 0 0 0 0 0 0 127 0" result="hardAlpha"/>
<feOffset dy="2"/>
<feGaussianBlur stdDeviation="2"/>
<feComposite in2="hardAlpha" operator="out"/>
<feColorMatrix type="matrix" values="0 0 0 0 0.484167 0 0 0 0 0.342758 0 0 0 0 0.212226 0 0 0 0.54 0"/>
<feBlend mode="normal" in2="BackgroundImageFix" result="effect1_dropShadow_1291_916"/>
<feBlend mode="normal" in="SourceGraphic" in2="effect1_dropShadow_1291_916" result="shape"/>
</filter>
</defs>
</svg>
